<svg width="839" height="572" viewBox="0 0 839 572" fill="none" xmlns="http://www.w3.org/2000/svg">
<rect x="682.643" y="149" width="71" height="11" fill="black"/>
<rect x="635.643" y="119" width="50" height="67" rx="25" fill="#3DB54B"/>
<path opacity="0.25" d="M644.643 135.17C644.643 126.24 651.882 119 660.813 119C672.869 119 682.643 128.774 682.643 140.83V152C682.643 162.493 674.136 171 663.643 171C653.149 171 644.643 162.493 644.643 152V135.17Z" fill="#D9D9D9"/>
<ellipse opacity="0.25" cx="675.143" cy="140.5" rx="4.5" ry="8.5" fill="#D9D9D9"/>
<ellipse opacity="0.25" cx="673.143" cy="158" rx="4.5" ry="5" fill="#D9D9D9"/>
<rect x="753.643" y="119" width="50" height="67" rx="25" fill="#3DB54B"/>
<path opacity="0.25" d="M762.643 135.17C762.643 126.24 769.882 119 778.813 119C790.869 119 800.643 128.774 800.643 140.83V152C800.643 162.493 792.136 171 781.643 171C771.149 171 762.643 162.493 762.643 152V135.17Z" fill="#D9D9D9"/>
<ellipse opacity="0.25" cx="793.143" cy="140.5" rx="4.5" ry="8.5" fill="#D9D9D9"/>
<ellipse opacity="0.25" cx="791.143" cy="158" rx="4.5" ry="5" fill="#D9D9D9"/>
<path d="M633 245.349C629.686 245.349 627 248.036 627 251.349C627 254.663 629.686 257.349 633 257.349L633 245.349ZM694.142 224L690.106 219.56L689.975 219.679L689.852 219.806L694.142 224ZM720 162.349C714.026 161.796 714.026 161.795 714.026 161.794C714.026 161.794 714.026 161.793 714.026 161.792C714.026 161.792 714.026 161.792 714.026 161.792C714.026 161.794 714.025 161.798 714.025 161.804C714.024 161.816 714.021 161.839 714.018 161.87C714.012 161.934 714.001 162.036 713.986 162.175C713.956 162.452 713.908 162.875 713.838 163.428C713.699 164.534 713.474 166.159 713.136 168.18C712.458 172.229 711.335 177.829 709.555 184.016C705.934 196.602 699.854 210.698 690.106 219.56L698.178 228.439C710.431 217.301 717.279 200.572 721.087 187.333C723.022 180.607 724.238 174.545 724.971 170.16C725.339 167.963 725.587 166.178 725.744 164.928C725.823 164.303 725.879 163.812 725.916 163.469C725.935 163.298 725.949 163.164 725.958 163.069C725.963 163.021 725.967 162.983 725.969 162.956C725.971 162.942 725.972 162.93 725.973 162.922C725.973 162.917 725.973 162.913 725.974 162.91C725.974 162.909 725.974 162.907 725.974 162.906C725.974 162.904 725.974 162.903 720 162.349ZM689.852 219.806C677.399 232.545 663.129 238.947 651.895 242.162C646.284 243.768 641.472 244.567 638.095 244.963C636.408 245.161 635.086 245.257 634.208 245.305C633.77 245.328 633.443 245.339 633.238 245.345C633.136 245.347 633.064 245.349 633.023 245.349C633.003 245.349 632.991 245.349 632.987 245.349C632.985 245.349 632.985 245.349 632.987 245.349C632.989 245.349 632.99 245.349 632.992 245.349C632.993 245.349 632.995 245.349 632.996 245.349C632.998 245.349 633 245.349 633 251.349C633 257.349 633.002 257.349 633.005 257.349C633.006 257.349 633.009 257.349 633.011 257.349C633.015 257.349 633.02 257.349 633.025 257.349C633.035 257.349 633.048 257.349 633.063 257.349C633.092 257.349 633.13 257.349 633.175 257.348C633.267 257.347 633.392 257.345 633.548 257.341C633.86 257.333 634.298 257.317 634.853 257.287C635.961 257.228 637.536 257.111 639.493 256.881C643.402 256.423 648.863 255.512 655.197 253.699C667.85 250.077 684.151 242.804 698.433 228.194L689.852 219.806Z" fill="white"/>
<ellipse cx="718.143" cy="153.5" rx="19.5" ry="15.5" fill="white"/>
<rect width="71" height="11" transform="matrix(-1 0 0 1 156 149)" fill="black"/>
<rect x="35" y="119" width="50" height="67" rx="25" fill="#3DB54B"/>
<path opacity="0.25" d="M44 135.17C44 126.24 51.2397 119 60.1702 119C72.2265 119 82 128.774 82 140.83V152C82 162.493 73.4934 171 63 171C52.5066 171 44 162.493 44 152V135.17Z" fill="#D9D9D9"/>
<ellipse opacity="0.25" cx="74.5" cy="140.5" rx="4.5" ry="8.5" fill="#D9D9D9"/>
<ellipse opacity="0.25" cx="72.5" cy="158" rx="4.5" ry="5" fill="#D9D9D9"/>
<rect x="153" y="119" width="50" height="67" rx="25" fill="#3DB54B"/>
<path opacity="0.25" d="M162 135.17C162 126.24 169.24 119 178.17 119C190.226 119 200 128.774 200 140.83V152C200 162.493 191.493 171 181 171C170.507 171 162 162.493 162 152V135.17Z" fill="#D9D9D9"/>
<ellipse opacity="0.25" cx="192.5" cy="140.5" rx="4.5" ry="8.5" fill="#D9D9D9"/>
<ellipse opacity="0.25" cx="190.5" cy="158" rx="4.5" ry="5" fill="#D9D9D9"/>
<path d="M205.643 245.349C208.956 245.349 211.643 248.036 211.643 251.349C211.643 254.663 208.956 257.349 205.643 257.349L205.643 245.349ZM144.5 224L148.536 219.56L148.667 219.679L148.791 219.806L144.5 224ZM118.643 162.349C124.617 161.796 124.617 161.795 124.617 161.794C124.617 161.794 124.617 161.793 124.617 161.792C124.617 161.792 124.617 161.792 124.617 161.792C124.617 161.794 124.617 161.798 124.618 161.804C124.619 161.816 124.621 161.839 124.624 161.87C124.631 161.934 124.641 162.036 124.656 162.175C124.686 162.452 124.735 162.875 124.804 163.428C124.944 164.534 125.169 166.159 125.507 168.18C126.184 172.229 127.308 177.829 129.088 184.016C132.708 196.602 138.788 210.698 148.536 219.56L140.464 228.439C128.212 217.301 121.363 200.572 117.555 187.333C115.62 180.607 114.405 174.545 113.671 170.16C113.304 167.963 113.056 166.178 112.898 164.928C112.82 164.303 112.763 163.812 112.726 163.469C112.708 163.298 112.694 163.164 112.684 163.069C112.68 163.021 112.676 162.983 112.673 162.956C112.672 162.942 112.671 162.93 112.67 162.922C112.67 162.917 112.669 162.913 112.669 162.91C112.669 162.909 112.669 162.907 112.669 162.906C112.668 162.904 112.668 162.903 118.643 162.349ZM148.791 219.806C161.243 232.545 175.514 238.947 186.748 242.162C192.358 243.768 197.17 244.567 200.548 244.963C202.234 245.161 203.557 245.257 204.434 245.305C204.873 245.328 205.2 245.339 205.405 245.345C205.507 245.347 205.579 245.349 205.619 245.349C205.639 245.349 205.651 245.349 205.655 245.349C205.657 245.349 205.657 245.349 205.655 245.349C205.654 245.349 205.652 245.349 205.65 245.349C205.649 245.349 205.647 245.349 205.647 245.349C205.645 245.349 205.643 245.349 205.643 251.349C205.643 257.349 205.64 257.349 205.638 257.349C205.637 257.349 205.634 257.349 205.632 257.349C205.628 257.349 205.623 257.349 205.618 257.349C205.607 257.349 205.595 257.349 205.58 257.349C205.551 257.349 205.513 257.349 205.467 257.348C205.375 257.347 205.251 257.345 205.095 257.341C204.783 257.333 204.344 257.317 203.79 257.287C202.681 257.228 201.107 257.111 199.15 256.881C195.24 256.423 189.779 255.512 183.446 253.699C170.792 250.077 154.491 242.804 140.21 228.194L148.791 219.806Z" fill="white"/>
<ellipse cx="19.5" cy="15.5" rx="19.5" ry="15.5" transform="matrix(-1 0 0 1 140 138)" fill="white"/>
<path d="M474.036 511.056C472.962 513.601 474.155 516.533 476.699 517.607C479.243 518.68 482.176 517.488 483.249 514.944L474.036 511.056ZM485.142 492L480.264 490.902L485.142 492ZM485.141 465.049C480.362 466.516 480.361 466.515 480.361 466.513C480.361 466.513 480.36 466.512 480.36 466.511C480.359 466.509 480.359 466.507 480.358 466.506C480.358 466.503 480.357 466.501 480.357 466.5C480.356 466.497 480.356 466.497 480.356 466.499C480.358 466.504 480.362 466.52 480.37 466.546C480.385 466.599 480.411 466.693 480.446 466.826C480.515 467.094 480.62 467.522 480.739 468.094C480.978 469.24 481.275 470.961 481.475 473.148C481.875 477.527 481.879 483.73 480.264 490.902L490.02 493.098C491.906 484.722 491.909 477.448 491.434 472.239C491.196 469.632 490.837 467.531 490.528 466.053C490.374 465.313 490.232 464.728 490.124 464.311C490.07 464.103 490.024 463.937 489.99 463.815C489.972 463.754 489.958 463.703 489.946 463.664C489.94 463.645 489.935 463.628 489.931 463.614C489.929 463.607 489.927 463.601 489.925 463.595C489.925 463.593 489.924 463.59 489.923 463.588C489.923 463.586 489.922 463.585 489.922 463.584C489.921 463.582 489.921 463.581 485.141 465.049ZM480.264 490.902C478.962 496.682 477.394 501.753 476.15 505.377C475.529 507.186 474.992 508.626 474.614 509.605C474.425 510.094 474.276 510.468 474.176 510.714C474.127 510.837 474.089 510.928 474.065 510.985C474.053 511.014 474.045 511.035 474.04 511.046C474.037 511.052 474.036 511.056 474.035 511.058C474.035 511.059 474.035 511.059 474.035 511.059C474.035 511.059 474.035 511.058 474.035 511.058C474.035 511.058 474.035 511.057 474.035 511.057C474.036 511.057 474.036 511.056 478.643 513C483.249 514.944 483.25 514.943 483.25 514.942C483.25 514.942 483.25 514.942 483.25 514.941C483.251 514.94 483.251 514.939 483.252 514.938C483.253 514.935 483.254 514.932 483.256 514.929C483.258 514.922 483.262 514.913 483.267 514.901C483.277 514.878 483.29 514.847 483.306 514.807C483.34 514.727 483.386 514.613 483.446 514.466C483.564 514.173 483.733 513.749 483.942 513.207C484.361 512.124 484.942 510.564 485.608 508.623C486.938 504.747 488.619 499.318 490.02 493.098L480.264 490.902Z" fill="white"/>
<ellipse cx="489.421" cy="512.88" rx="16" ry="9.5" transform="rotate(-5.08036 489.421 512.88)" fill="white"/>
<path d="M365.806 511.182C366.879 513.727 365.687 516.659 363.143 517.733C360.599 518.806 357.666 517.614 356.592 515.069L365.806 511.182ZM354.7 492.126L359.578 491.028L354.7 492.126ZM354.701 465.175C359.48 466.642 359.481 466.641 359.481 466.639C359.481 466.639 359.482 466.638 359.482 466.637C359.482 466.635 359.483 466.633 359.483 466.632C359.484 466.629 359.485 466.627 359.485 466.626C359.486 466.623 359.486 466.623 359.485 466.625C359.484 466.63 359.479 466.646 359.472 466.672C359.457 466.724 359.431 466.818 359.396 466.952C359.327 467.22 359.222 467.647 359.103 468.22C358.864 469.366 358.566 471.087 358.367 473.274C357.967 477.653 357.963 483.856 359.578 491.028L349.822 493.224C347.936 484.848 347.932 477.574 348.408 472.365C348.646 469.758 349.005 467.657 349.313 466.179C349.468 465.439 349.609 464.854 349.718 464.437C349.772 464.229 349.817 464.063 349.852 463.941C349.87 463.88 349.884 463.829 349.896 463.79C349.901 463.771 349.906 463.754 349.911 463.74C349.913 463.733 349.915 463.727 349.916 463.721C349.917 463.719 349.918 463.716 349.919 463.713C349.919 463.712 349.92 463.711 349.92 463.71C349.92 463.708 349.921 463.707 354.701 465.175ZM359.578 491.028C360.88 496.808 362.448 501.879 363.692 505.503C364.313 507.312 364.85 508.752 365.228 509.731C365.417 510.22 365.566 510.594 365.665 510.84C365.715 510.963 365.753 511.054 365.776 511.111C365.788 511.14 365.797 511.16 365.802 511.172C365.804 511.178 365.806 511.182 365.807 511.184C365.807 511.185 365.807 511.185 365.807 511.185C365.807 511.185 365.807 511.184 365.807 511.184C365.807 511.184 365.806 511.183 365.806 511.183C365.806 511.183 365.806 511.182 361.199 513.126C356.592 515.069 356.592 515.069 356.592 515.068C356.592 515.068 356.592 515.068 356.591 515.067C356.591 515.066 356.591 515.065 356.59 515.064C356.589 515.061 356.588 515.058 356.586 515.055C356.583 515.048 356.579 515.039 356.575 515.027C356.565 515.004 356.552 514.973 356.535 514.933C356.502 514.853 356.455 514.738 356.396 514.592C356.277 514.299 356.109 513.875 355.899 513.333C355.481 512.25 354.9 510.69 354.234 508.749C352.904 504.873 351.223 499.444 349.822 493.224L359.578 491.028Z" fill="white"/>
<ellipse cx="16" cy="9.5" rx="16" ry="9.5" transform="matrix(-0.996071 -0.0885529 -0.0885529 0.996071 367.199 504.96)" fill="white"/>
<circle cx="418.143" cy="262.5" r="214.5" fill="#E9E9E9"/>
<ellipse cx="407.643" cy="262.5" rx="204" ry="214.5" fill="white"/>
<path d="M536.143 262C536.143 328.69 483.173 382.5 418.143 382.5C353.112 382.5 300.143 328.69 300.143 262C300.143 195.31 353.112 141.5 418.143 141.5C483.173 141.5 536.143 195.31 536.143 262Z" fill="#089CB0" stroke="#10829C" stroke-width="15"/>
<path d="M541.643 246L540.643 238L483.643 250.5L541.643 246Z" fill="#047281"/>
<path d="M539.951 289.438L541.609 281.548L483.643 274.82L539.951 289.438Z" fill="#047281"/>
<path d="M503.618 170.195L497.781 164.633L461.552 210.378L503.618 170.195Z" fill="#047281"/>
<path d="M529.824 205.505L526.115 198.346L476.972 229.813L529.824 205.505Z" fill="#047281"/>
<path d="M525.05 327.098L529.202 320.187L476.643 294.834L525.05 327.098Z" fill="#047281"/>
<path d="M497.917 359.609L504.092 354.425L462.643 313.349L497.917 359.609Z" fill="#047281"/>
<path d="M458.787 382.098L466.468 379.648L443.73 325.906L458.787 382.098Z" fill="#047281"/>
<path d="M415.591 389.414L423.651 389.597L419.639 331.381L415.591 389.414Z" fill="#047281"/>
<path d="M370.622 379.865L378.055 382.988L395.646 327.348L370.622 379.865Z" fill="#047281"/>
<path d="M335.936 357.936L341.985 363.266L376.403 316.143L335.936 357.936Z" fill="#047281"/>
<path d="M416.089 135.238L424.147 134.988L420.618 193.236L416.089 135.238Z" fill="#047281"/>
<path d="M371.578 143.62L379.116 140.761L394.733 196.987L371.578 143.62Z" fill="#047281"/>
<path d="M459.48 141.886L467.127 144.443L443.643 197.864L459.48 141.886Z" fill="#047281"/>
<path d="M334.711 166.853L340.896 161.682L374.077 209.685L334.711 166.853Z" fill="#047281"/>
<path d="M309.473 200.309L313.639 193.407L360.634 228L309.473 200.309Z" fill="#047281"/>
<path d="M293.773 244.997L295.004 237.029L351.618 251.176L293.773 244.997Z" fill="#047281"/>
<path d="M296.349 291.197L294.633 283.313L355.35 274.763L296.349 291.197Z" fill="#047281"/>
<path d="M313.154 331.208L308.809 324.406L363.576 294.482L313.154 331.208Z" fill="#047281"/>
<path d="M518.149 186.263L513.283 179.834L470.17 219.16L518.149 186.263Z" fill="#1688A3"/>
<path d="M537.536 225.227L535.027 217.565L481.463 240.721L537.536 225.227Z" fill="#1688A3"/>
<path d="M446.451 138.126L438.615 136.227L430.112 193.959L446.451 138.126Z" fill="#1688A3"/>
<path d="M486.118 158.031L479.327 153.686L452.501 205.509L486.118 158.031Z" fill="#1688A3"/>
<path d="M542.655 265.758L542.795 257.697L484.601 262.02L542.655 265.758Z" fill="#1688A3"/>
<path d="M534.854 307.38L537.61 299.803L481.176 284.955L534.854 307.38Z" fill="#1688A3"/>
<path d="M512.576 345.055L518.004 339.093L471.441 303.92L512.576 345.055Z" fill="#1688A3"/>
<path d="M478.825 372.257L485.897 368.386L453.314 319.975L478.825 372.257Z" fill="#1688A3"/>
<path d="M437.339 386.338L445.337 385.326L432.751 328.345L437.339 386.338Z" fill="#1688A3"/>
<path d="M394.237 387.055L402.141 388.647L408.386 330.628L394.237 387.055Z" fill="#1688A3"/>
<path d="M352.156 153.355L359.01 149.11L385.078 201.318L352.156 153.355Z" fill="#1688A3"/>
<path d="M321.044 181.729L326.143 175.485L367.781 216.369L321.044 181.729Z" fill="#1688A3"/>
<path d="M392.205 137.547L400.105 135.938L406.478 193.943L392.205 137.547Z" fill="#1688A3"/>
<path d="M299.867 222.052L302.638 214.48L355.375 239.462L299.867 222.052Z" fill="#1688A3"/>
<path d="M293.372 263.278L293.528 255.218L351.524 261.679L293.372 263.278Z" fill="#1688A3"/>
<path d="M301.754 309.462L298.837 301.946L354.939 285.891L301.754 309.462Z" fill="#1688A3"/>
<path d="M326.585 349.051L321.157 343.081L369.464 305.318L326.585 349.051Z" fill="#1688A3"/>
<path d="M362.876 374.3L355.712 370.581L388.179 317.283L362.876 374.3Z" fill="#1688A3"/>
<ellipse cx="418.143" cy="262" rx="57.5" ry="56" fill="#151A1D"/>
<g opacity="0.15">
<ellipse cx="385.143" cy="228" rx="29.5" ry="37" fill="white"/>
<ellipse cx="313.66" cy="322.649" rx="46.5263" ry="58.355" transform="rotate(-25.3271 313.66 322.649)" fill="white"/>
<ellipse cx="418.643" cy="304.5" rx="16" ry="18.5" fill="white"/>
</g>
</svg>
