<svg width="238" height="222" viewBox="0 0 238 222" fill="none" xmlns="http://www.w3.org/2000/svg">
<path d="M108.925 32.9H70.625C66.725 32.9 63.625 36.1 63.625 39.9V141.2C63.625 145.1 66.725 148.2 70.625 148.2H108.925H148.525C152.425 148.2 155.525 145.1 155.525 141.2V39.9C155.525 36.1 152.425 32.9 148.525 32.9H108.925Z" fill="#17C5CC"/>
<path d="M109.025 37.2001H73.0247C70.3247 37.2001 68.2246 39.4001 68.2246 42.0001V139.3C68.2246 141.9 70.3247 144.1 73.0247 144.1H109.025H146.125C148.725 144.1 150.925 141.9 150.925 139.3V42.0001C150.925 39.4001 148.725 37.2001 146.125 37.2001H109.025Z" fill="#14B0BF"/>
<path d="M109.025 41.8H71.9248V139.6H109.025H147.225V41.8H109.025Z" fill="white"/>
<path d="M110.825 30.3H94.625V34.0001C94.625 36.7001 96.725 38.8 99.325 38.8H110.825H123.425C126.125 38.8 128.225 36.7001 128.225 34.0001V30.3H110.825Z" fill="#14B0BF"/>
<path d="M132.425 34H110.825H90.425C88.425 34 86.625 35.4 86.125 37.3H136.725C136.225 35.4 134.425 34 132.425 34Z" fill="#17C5CC"/>
<path d="M136.925 39.1V38.5001C136.925 38.1001 136.858 37.7 136.725 37.3H86.1248C85.9915 37.7 85.9248 38.1001 85.9248 38.5001V39.1C85.9248 39.3667 85.9582 39.6334 86.0248 39.9H136.825C136.891 39.6334 136.925 39.3667 136.925 39.1Z" fill="#22DDDD"/>
<path d="M86.0254 39.9C86.4254 42 88.2254 43.6 90.4254 43.6H110.825H132.425C134.625 43.6 136.425 42 136.825 39.9H86.0254Z" fill="#17C5CC"/>
<path fill-rule="evenodd" clip-rule="evenodd" d="M128.225 29.3V30.3H94.625V29.3C94.625 26.6 96.725 24.5 99.325 24.5H105.925C105.925 21.7 108.025 19.4 110.825 19.1C111.025 19.0333 111.225 19 111.425 19C114.425 19 116.925 21.5 116.925 24.5H123.425C126.125 24.5 128.225 26.6 128.225 29.3ZM114.125 24.5C114.125 23 112.925 21.8 111.425 21.8C111.225 21.8 111.025 21.8333 110.825 21.9C109.625 22.1 108.725 23.2 108.725 24.5C108.725 25.8 109.625 26.9 110.825 27.2C111.025 27.2 111.225 27.2 111.425 27.2C112.925 27.2 114.125 26 114.125 24.5Z" fill="#17C5CC"/>
<path d="M142.225 77.3H75.3252V72.4H142.225V77.3Z" fill="#7EBFCE"/>
<path d="M142.225 86.2001H75.3252V81.2001H142.225V86.2001Z" fill="#7EBFCE"/>
<path d="M142.225 95H75.3252V90H142.225V95Z" fill="#7EBFCE"/>
<path fill-rule="evenodd" clip-rule="evenodd" d="M84.1246 55.8C84.5246 55.3 95.6247 44.7001 109.525 44.7001C109.658 44.7001 109.791 44.7001 109.925 44.7001C110.058 44.7001 110.158 44.7001 110.225 44.7001C110.758 44.7001 111.258 44.7334 111.725 44.8C124.625 45.8 134.625 55.4 135.025 55.8L136.425 57.1L135.025 58.5001C134.625 58.9001 123.525 69.6 109.525 69.6C95.6247 69.6 84.5246 58.9001 84.1246 58.5001L82.7246 57.1L84.1246 55.8ZM110.325 65.4C114.925 65.4 118.725 61.6 118.725 56.9C118.725 52.4 115.125 48.8001 110.725 48.5001C110.525 48.5001 110.325 48.5001 110.125 48.5001C105.525 48.6001 101.825 52.3 101.825 56.9C101.825 61.6 105.625 65.4 110.325 65.4ZM121.025 51.1C121.925 52.8 122.525 54.8 122.525 56.9C122.525 59.3 121.825 61.6 120.625 63.4C125.225 61.5 128.925 58.8001 130.925 57.2001C129.025 55.6001 125.425 53 121.025 51.1ZM100.525 64.2001C99.0247 62.2001 98.1246 59.6 98.1246 56.9C98.1246 54.5 98.8247 52.2 100.025 50.3C94.7247 52.3 90.4246 55.4001 88.3246 57.2001C90.5246 59.0001 94.9247 62.2001 100.525 64.2001Z" fill="#225566"/>
<path d="M112.225 58.5001C112.225 59.3001 112.725 60 113.325 60.4C112.525 61.1 111.425 61.6 110.325 61.6C107.725 61.6 105.525 59.5 105.525 56.9C105.525 54.3 107.725 52.2001 110.325 52.2001C112.625 52.2001 114.625 54 114.825 56.3C114.692 56.2334 114.559 56.2001 114.425 56.2001C113.225 56.2001 112.225 57.2001 112.225 58.5001Z" fill="#225566"/>
<path fill-rule="evenodd" clip-rule="evenodd" d="M115.825 141.3V167.3C115.825 170.3 113.425 172.7 110.425 172.7C107.425 172.7 105.025 170.3 105.025 167.3V141.3C91.8252 138.7 81.8252 127.1 81.8252 113.2C81.8252 97.4001 94.6252 84.6001 110.425 84.6001C126.225 84.6001 139.025 97.4001 139.025 113.2C139.025 127.1 129.025 138.7 115.825 141.3ZM131.325 113.2C131.325 101.7 121.925 92.3001 110.425 92.3001C98.9252 92.3001 89.5252 101.7 89.5252 113.2C89.5252 124.7 98.9252 134.1 110.425 134.1C121.925 134.1 131.325 124.7 131.325 113.2Z" fill="#225566"/>
<path d="M124.425 109.9H113.725V99.2001C113.725 97.4001 112.225 95.9 110.425 95.9C108.625 95.9 107.125 97.4001 107.125 99.2001V109.9H96.425C94.625 109.9 93.125 111.4 93.125 113.2C93.125 115 94.625 116.5 96.425 116.5H107.125V127.2C107.125 129 108.625 130.5 110.425 130.5C112.225 130.5 113.725 129 113.725 127.2V116.5H124.425C126.225 116.5 127.725 115 127.725 113.2C127.725 111.4 126.225 109.9 124.425 109.9Z" fill="#F42A39"/>
<path d="M156.025 92.9L149.825 98.4L140.625 96.8C140.025 96.7 139.425 97.1001 139.225 97.7001C139.025 98.5001 138.925 99.7001 139.725 100.7C141.125 102.4 148.125 103.3 148.125 103.3L151.325 104C151.325 104 155.625 114.9 155.925 115.2C156.225 115.6 165.025 113.7 165.025 113.7L164.425 98.9L156.025 92.9Z" fill="#E7B088"/>
<path d="M141.825 93.7001C141.825 93.7001 139.425 95.2001 142.125 97.7001C144.925 100.3 157.025 100.6 157.025 100.6C157.025 100.6 158.325 95.2 158.225 94.8C158.125 94.5 141.825 93.7001 141.825 93.7001Z" fill="#E7B088"/>
<path d="M166.025 125.2L174.425 112.5L168.625 96.1L166.125 93L155.925 88.4H155.825L154.825 87.8L151.025 85.9C150.425 85.6 149.725 85.8 149.325 86.3C149.258 86.3 149.225 86.3 149.225 86.3C149.091 86.4333 149.025 86.6 149.025 86.8C148.891 87.1333 148.791 87.5 148.725 87.9C148.625 88.3 148.725 88.7 148.925 89C150.725 91.8 157.925 95.5 161.225 97.1C162.325 97.6 163.025 99.2 163.125 100.4C163.225 103.5 162.425 109.5 161.525 111.4C160.625 113.2 159.025 112.7 157.825 111.7C157.825 111.7 157.791 111.7 157.725 111.7C157.725 111.633 157.691 111.6 157.625 111.6C157.558 111.533 157.491 111.467 157.425 111.4C157.358 111.333 157.291 111.267 157.225 111.2C157.158 111.133 157.091 111.067 157.025 111C156.958 110.933 156.925 110.9 156.925 110.9C156.858 110.833 156.825 110.767 156.825 110.7C156.758 110.7 156.725 110.667 156.725 110.6C156.725 110.6 156.691 110.567 156.625 110.5C156.625 110.433 156.591 110.367 156.525 110.3C155.725 108.9 152.525 97.7 152.125 96.3C151.625 94.9 150.025 94.3 148.025 95.5C146.825 96.2 147.025 97.4 147.225 98.5C147.625 100.2 147.925 101.9 148.125 103.6C148.525 107.1 148.625 110.7 148.925 114.2C148.925 114.2 148.525 117.1 146.225 123C145.958 123.6 145.758 124.2 145.625 124.8C145.558 124.933 145.525 125.033 145.525 125.1C145.391 125.567 145.325 126.033 145.325 126.5C145.258 127.033 145.225 127.6 145.225 128.2C145.225 128.333 145.258 128.5 145.325 128.7C145.325 128.767 145.325 128.867 145.325 129C145.325 129.133 145.358 129.267 145.425 129.4C145.425 129.533 145.425 129.633 145.425 129.7C145.491 129.833 145.525 130 145.525 130.2C145.525 130.267 145.558 130.333 145.625 130.4C145.625 130.6 145.658 130.767 145.725 130.9C145.725 130.967 145.758 131.033 145.825 131.1C145.825 131.233 145.825 131.333 145.825 131.4C145.891 131.467 145.925 131.533 145.925 131.6C147.125 135 149.225 137.3 149.225 137.3C149.225 137.3 164.025 160.2 164.425 160L179.525 151.2L165.225 131.3C164.025 129.7 165.125 126.9 166.025 125.2Z" fill="#F2C4A5"/>
<path d="M128.425 78.4C129.225 79.4 130.425 80.9 132.625 83.5C133.625 82.3667 134.625 81.2333 135.625 80.1C132.725 78.3 131.125 77.2 130.025 76.5L128.425 78.4Z" fill="#F94E63"/>
<path d="M173.425 121.8L177.225 125.1L185.225 121.1L180.025 116.6L173.425 121.8Z" fill="#F94E63"/>
<path d="M156.425 107C157.025 107.6 157.658 108.2 158.325 108.8L164.025 102.2C163.358 101.667 162.692 101.133 162.025 100.6L156.425 107Z" fill="#16405E"/>
<path d="M132.325 83.5001C141.525 92.5001 147.625 98.7 154.125 104.9L159.625 98.6C152.625 93 145.725 87.7 135.625 79.8C134.492 81.0667 133.392 82.3001 132.325 83.5001Z" fill="#14B0BF"/>
<path d="M173.225 105.7C165.825 99.6001 157.025 91.5 156.925 91.4C156.925 91.4 155.825 95.6 160.725 97.6C163.225 99.8 173.725 109.7 173.825 109.8C173.825 109.8 174.525 110.5 174.725 111.3C174.825 111.7 174.725 112.2 173.725 112.6C172.825 113 172.725 113.4 172.825 113.8C173.025 115 177.125 116.1 178.325 116.5H178.525L178.625 116.4C178.725 116.4 179.825 115.5 179.425 113.5C179.025 111.3 176.925 108.7 173.225 105.7Z" fill="#F94E63"/>
<path d="M154.125 104.9C154.858 105.633 155.625 106.333 156.425 107L162.025 100.6C161.225 99.9334 160.425 99.2668 159.625 98.6001L154.125 104.9Z" fill="#F94E63"/>
<path d="M158.325 108.8C162.925 113.1 168.125 117.7 174.825 123.4C176.759 121.2 178.692 119 180.625 116.8C174.125 110.8 168.925 106.3 164.025 102.2L158.325 108.8Z" fill="#14B0BF"/>
<path d="M126.525 75.1001C126.725 75.6001 126.925 76.3001 127.325 76.9001C127.659 77.5001 128.025 78.0001 128.425 78.4001C128.959 77.8001 129.492 77.1668 130.025 76.5001C129.692 76.2335 129.225 76.0001 128.625 75.8001C127.825 75.4001 127.125 75.2001 126.525 75.1001Z" fill="#16405E"/>
<path d="M154.825 87.8L151.025 85.9C150.425 85.6 149.725 85.8 149.325 86.3C149.825 86.9 151.625 88.8 153.825 88.8C154.025 88.8 154.225 88.8 154.425 88.8C154.692 88.6667 154.925 88.4 155.125 88C154.992 87.9334 154.892 87.8667 154.825 87.8Z" fill="#EAD4C1"/>
<path d="M157.725 111.7C157.725 111.633 157.691 111.6 157.625 111.6C157.558 111.533 157.491 111.467 157.425 111.4C157.358 111.333 157.291 111.267 157.225 111.2C157.158 111.133 157.091 111.067 157.025 111C156.958 110.933 156.925 110.9 156.925 110.9C156.858 110.833 156.825 110.767 156.825 110.7C156.758 110.7 156.725 110.667 156.725 110.6C156.725 110.6 156.691 110.567 156.625 110.5C156.625 110.433 156.591 110.367 156.525 110.3C155.725 108.9 152.525 97.7001 152.125 96.3001C151.625 94.9001 150.625 94.3001 148.025 95.5001C146.725 96.0001 146.325 97.1001 146.625 98.2001C146.925 99.9001 147.525 101.6 147.725 103.3C148.125 106.8 148.625 110.7 148.925 114.2C148.925 114.2 148.525 117.1 146.225 123C145.958 123.6 145.758 124.2 145.625 124.8C145.558 124.933 145.525 125.033 145.525 125.1C145.391 125.567 145.325 126.033 145.325 126.5C145.258 127.033 145.225 127.6 145.225 128.2C145.225 128.333 145.258 128.5 145.325 128.7C145.325 128.767 145.325 128.867 145.325 129C145.325 129.133 145.358 129.267 145.425 129.4C145.425 129.533 145.425 129.633 145.425 129.7C145.491 129.833 145.525 130 145.525 130.2C145.525 130.267 145.558 130.333 145.625 130.4C145.625 130.6 145.658 130.767 145.725 130.9C145.725 130.967 145.758 131.033 145.825 131.1C145.825 131.233 145.825 131.333 145.825 131.4C145.891 131.467 145.925 131.533 145.925 131.6C146.325 131.4 146.691 131.167 147.025 130.9C153.525 126.3 158.025 119.7 157.825 111.7C157.825 111.7 157.791 111.7 157.725 111.7Z" fill="#F2C4A5"/>
<path d="M151.525 95.9C151.325 95.4 150.825 95.2 150.325 95.3L147.925 96.1C147.425 96.2 147.125 96.8 147.325 97.3L148.025 99.6C148.425 100.7 149.425 101.4 150.625 101.2C151.925 100.9 152.725 99.6 152.325 98.3L151.525 95.9Z" fill="#EAD4C1"/>
<path d="M147.025 132C146.225 130.3 145.625 127.7 145.325 126.5C145.258 127.033 145.225 127.6 145.225 128.2C145.225 128.333 145.258 128.5 145.325 128.7C145.325 128.767 145.325 128.867 145.325 129C145.325 129.133 145.358 129.267 145.425 129.4C145.425 129.533 145.425 129.633 145.425 129.7C145.491 129.833 145.525 130 145.525 130.2C145.525 130.267 145.558 130.333 145.625 130.4C145.625 130.6 145.658 130.767 145.725 130.9C145.725 130.967 145.758 131.033 145.825 131.1C145.825 131.233 145.825 131.333 145.825 131.4C145.891 131.467 145.925 131.533 145.925 131.6C147.125 135 149.225 137.3 149.225 137.3C149.225 137.3 164.025 160.2 164.425 160L165.625 159.3C163.825 156.8 160.125 151.8 153.525 142.1C150.425 137.6 148.325 135 147.025 132Z" fill="#E7B088"/>
<path d="M147.825 140.2L151.825 149L172.825 138.5L168.925 128.9L147.825 140.2Z" fill="white"/>
<path d="M214.925 202.3L175.825 131.3L163.525 140L150.025 149.5L176.525 202.3H214.925Z" fill="#B6E7F2"/>
<path d="M190.325 202.3C181.025 186 159.325 143.2 159.325 143.2L150.025 149.5L176.525 202.3H190.325Z" fill="#7EBFCE"/>
<path fill-rule="evenodd" clip-rule="evenodd" d="M76.325 147.6L94.725 166.1C96.825 168.2 96.825 171.6 94.725 173.7C92.625 175.8 89.125 175.8 87.025 173.7L68.625 155.3C57.525 162.8 42.225 161.7 32.325 151.8C21.225 140.7 21.225 122.5 32.325 111.4C43.525 100.2 61.625 100.2 72.825 111.4C82.625 121.2 83.825 136.5 76.325 147.6ZM67.325 116.8C59.225 108.7 45.925 108.7 37.825 116.8C29.725 125 29.725 138.2 37.825 146.4C45.925 154.5 59.225 154.5 67.325 146.4C75.525 138.2 75.525 125 67.325 116.8Z" fill="#225566"/>
<path d="M64.825 124.9L45.925 143.8C44.625 145 42.425 144.8 40.925 143.3C39.425 141.8 39.225 139.5 40.425 138.3L59.325 119.4C60.525 118.2 62.725 118.4 64.225 119.9C65.725 121.5 66.025 123.7 64.825 124.9Z" fill="#04819E"/>
</svg>
