<svg width="251" height="257" viewBox="0 0 251 257" fill="none" xmlns="http://www.w3.org/2000/svg">
<path d="M148.6 132.589C147.7 132.189 147.1 131.289 146.8 130.389C145.2 125.889 144.8 111.389 146.1 106.589L99 107.689C99 111.489 101.2 121.489 100.3 127.389C99.8 130.489 99.3 133.289 96 134.989C96.2 136.389 96.9 137.589 97.2 138.889C97.4 140.389 97.8 141.789 98.3 143.189C99.3 145.989 100.9 148.489 103 150.589C108.1 155.489 114.8 157.289 121.2 157.389C129.9 157.489 137.8 153.889 143.7 147.389C144.6 144.889 145.8 142.389 146.5 139.889C146.8 138.689 146.6 137.389 147 136.289C147.4 135.289 148.3 134.389 149 133.589C149.1 133.489 149.2 133.389 149.2 133.189C149.2 132.889 148.9 132.789 148.6 132.589Z" fill="#E2A77D"/>
<path d="M70.8 217.589L71 216.689C71 216.689 71 216.989 71 217.589H125.1V147.189C123.2 147.389 121.4 147.389 119.6 147.389C113.6 147.389 109.4 144.989 104.4 141.989C101.6 140.289 97 133.689 94.2 134.889C93.6 135.155 92.8667 135.455 92 135.789C81.7 139.689 54.6 147.989 50.1 153.689C48.6 155.589 47.4 156.089 46.3 158.289C45.6 159.589 42 187.089 42 217.589H70.8Z" fill="#CBE2EC"/>
<path d="M209.401 217.589C205.901 194.189 206.601 166.189 198.201 151.589C196.901 149.289 194.801 147.489 192.401 146.489C184.201 142.989 165.001 136.289 155.601 133.989C150.901 132.689 147.701 131.989 147.601 132.089C146.901 134.889 144.201 138.089 142.301 140.289C140.201 142.589 137.601 144.389 134.701 145.389C131.601 146.589 128.301 146.989 125.101 147.189V217.589H209.401Z" fill="#BFD5DF"/>
<path d="M155.601 133.989C150.901 132.689 147.701 131.989 147.601 132.089C146.901 134.889 144.201 138.089 142.301 140.289C140.201 142.589 137.601 144.389 134.701 145.389C131.601 146.589 128.301 146.989 125.101 147.189C124.234 147.255 123.401 147.289 122.601 147.289V191.989C123.401 192.889 124.201 193.689 125.101 194.589C142.101 173.489 153.101 163.189 155.601 133.989Z" fill="#B8CDD6"/>
<path d="M119.6 147.389C113.6 147.389 109.4 144.989 104.4 141.989C101.6 140.289 97 133.689 94.2 134.889C93.6 135.155 92.8667 135.455 92 135.789C92.4 145.889 97.4 165.189 122.6 191.989V147.289C121.6 147.355 120.6 147.389 119.6 147.389Z" fill="#BFD5DF"/>
<path d="M119.6 161.489C120.2 162.589 120.4 163.789 120.1 164.989L114.3 191.389C116.8 192.589 119.4 193.689 122.1 194.389C128.4 195.989 132.1 193.189 134.1 187.989L129 164.989C128.2 161.389 132.3 159.089 131.7 155.689C131.5 153.989 129.5 152.989 128.4 151.789C127.3 150.589 126.4 148.589 124.8 147.889C121.8 146.589 118.3 150.389 116.8 153.289C116 154.789 116.4 155.389 117.1 156.789C118 158.289 118.8 159.889 119.6 161.489Z" fill="#6A828C"/>
<path d="M96.9 111.289C97.1 112.989 97.9 114.589 99.1 115.789L109.8 125.989C107.4 114.689 101.5 105.389 95 95.6886L96.9 111.289Z" fill="#F0B784"/>
<path d="M148.601 100.389L150.501 84.6886C150.401 78.3886 150.601 72.0886 150.401 65.7886C150.201 62.0886 149.101 59.9886 145.901 57.9886C141.901 55.4886 138.801 56.6886 135.301 57.9886C134.101 58.4886 132.901 58.8886 131.601 59.1886C127.801 59.9886 123.601 60.7886 120.001 58.9886C114.101 56.1886 108.401 51.4886 101.301 51.8886C100.001 51.9886 98.7006 52.2886 97.6006 52.8886C95.3006 54.0886 94.0006 56.5886 93.3006 59.0886C91.6006 65.1886 94.2006 70.2886 93.5006 76.5886C93.5673 79.4553 93.6339 82.2886 93.7006 85.0886L95.0006 95.6886C101.501 105.389 107.401 114.689 109.801 125.989L112.401 128.389C113.601 129.589 115.101 130.189 116.801 130.189H122.201L127.701 130.089C129.301 130.089 130.801 129.489 132.001 128.289L135.801 124.589C136.001 114.289 139.401 104.089 148.601 100.389Z" fill="#FFC28E"/>
<path d="M148.6 100.389C139.4 104.089 136 114.289 135.8 124.589L145.8 114.789C146.6 113.989 147.1 112.989 147.3 111.789L148.6 100.389Z" fill="#F0B784"/>
<path d="M97.0997 84.9886C96.6997 82.1886 96.3997 79.8886 96.1997 79.2886C96.0997 78.6886 95.7997 77.9886 95.0997 77.8886C94.7997 77.7886 94.3997 78.1886 94.0997 78.0886C91.7997 76.5886 90.3997 78.2886 89.6997 80.4886C88.8997 83.1886 89.0997 84.8886 90.2997 87.2886C91.5997 89.9886 92.4997 92.9886 93.5997 95.8886C93.8997 96.5886 95.1997 100.789 96.1997 100.789L101.2 100.689C99.4997 100.689 98.0997 91.3886 97.0997 84.9886Z" fill="#FFC28E"/>
<path d="M147 84.5886C147.3 82.5886 147.7 80.5886 148.7 78.3886C149.2 77.3886 150.3 76.0886 151.3 76.6886C152.8 77.3886 153.8 79.1886 154.4 80.6886C155.3 82.9886 154.4 84.1886 153.5 86.3886C153 87.7886 148.9 100.389 148 100.389H143C144.1 96.9886 145.7 93.3886 146.3 89.8886C146.6 87.9886 146.7 86.2886 147 84.5886Z" fill="#FFC28E"/>
<path d="M96.0004 90.0886C95.6004 85.3886 95.2004 80.4886 94.3004 75.7886C93.2004 69.4886 96.5004 62.9886 100 57.5886C100.6 56.6886 101.2 55.6886 102.3 55.3886C103.7 54.9886 105.1 55.8886 106.3 56.5886C110.4 59.2886 119.5 62.6886 119.5 62.6886C119.5 62.6886 129.1 62.9886 133.7 61.8886C136.8 61.1886 141.1 58.7886 144.3 60.7886C146.9 62.2886 147.6 67.2886 148.6 70.1886L148.8 93.9886L151.8 84.4886C154.1 76.0886 154.7 56.7886 154.7 56.7886C154.7 56.7886 142 43.0886 134.6 44.5886C137.2 43.9886 142 44.7886 144.7 44.2886C134.6 40.9886 126.4 37.8886 118.1 39.3886C109.8 40.7886 102.1 44.6886 95.7004 49.7886C92.8004 52.0886 88.4004 57.8886 88.4004 57.8886C88.4004 57.8886 88.5004 78.6886 96.0004 90.0886Z" fill="#393B42"/>
<path d="M110.3 110.489C113.6 111.389 118.3 112.289 124 111.989C128.3 111.689 131.9 110.789 134.6 109.889C133.733 111.755 132.866 113.622 132 115.489C130.5 116.389 126.4 118.789 121 118.089C118.3 117.789 116.2 116.789 114.8 115.889C113.333 114.089 111.833 112.289 110.3 110.489Z" fill="white"/>
<path d="M117.8 101.089L120.6 104.389C121.2 104.589 123.6 105.589 126.5 104.589C129.7 103.389 130.6 101.289 130.8 100.789L128.6 107.389C124.8 108.089 123.9 107.989 119.2 107.589L117.8 101.089Z" fill="#E2A77D"/>
<path d="M96.4 138.489C97.1 136.389 97.7001 134.489 98.1001 132.889C94.4001 134.589 90.6 136.189 86.8 137.589C83.9 141.589 81.1001 146.889 79.6001 153.989C78.8001 169.689 80.1001 170.489 80.1001 170.489L101.5 166.889C102.7 166.889 92.4 181.589 92.4 181.589C98 184.489 121.6 199.189 125.1 202.289L125 190.489C122.3 187.589 91.3 154.289 96.4 138.489Z" fill="white"/>
<path d="M145.5 168.189C145.367 168.055 145.3 167.989 145.3 167.989C145.4 167.989 145.7 168.189 146.1 168.589C149.2 169.789 159.7 169.089 165.9 167.889C165.8 150.189 163.4 140.089 159 134.389C155.9 133.889 148.1 131.689 147.8 131.589C148.6 133.089 149.7 134.489 150.9 136.589C150.9 136.655 150.9 136.722 150.9 136.789C150.8 147.289 148.2 157.689 143.5 166.989C143.233 167.589 142.933 168.155 142.6 168.689L125 190.489L125.1 202.289C133.4 190.789 152.2 181.789 157 178.389C157 178.389 148.8 170.789 146.1 168.589C145.833 168.455 145.633 168.322 145.5 168.189Z" fill="#E6F7FC"/>
<path d="M100.3 127.389L123.1 147.289L109.7 163.389L96 134.989L100.3 127.389Z" fill="white"/>
<path d="M146.2 127.389L123.8 147.289L136.7 163.389L150.5 134.989L146.2 127.389Z" fill="#E6F7FC"/>
<path d="M112.5 214.289V196.489H77.9004V214.289H112.5Z" fill="#6A828C"/>
<path d="M108.5 202.289H81.9004V199.289H108.5V202.289Z" fill="#F0F1F2"/>
<path d="M108.5 207.889H81.9004V204.889H108.5V207.889Z" fill="#F0F1F2"/>
<path d="M108.5 212.189V210.589H81.9004V212.189H108.5Z" fill="#F0F1F2"/>
<path d="M91.7002 191.589V197.789H98.7002V191.589H91.7002Z" fill="#6A828C"/>
<path d="M155 64.7886L153.6 76.0886L89.7 75.7886L88 64.7886H155Z" fill="#BFD5DF"/>
<g style="mix-blend-mode:multiply" opacity="0.5">
<path d="M131.5 65.5886C131.5 69.5886 130.1 73.1886 127.6 75.9886H103.9C101.5 73.1886 100 69.5886 100 65.5886C100 65.2886 100 65.0886 100 64.7886H131.5C131.567 65.0552 131.567 65.3219 131.5 65.5886Z" fill="#D6D6D6"/>
</g>
<path d="M130.8 65.5886C130.8 73.8886 124.1 80.5886 115.8 80.5886C113 80.5886 110.5 79.7886 108.2 78.4886C103.7 75.9886 100.8 71.0886 100.8 65.5886C100.8 65.0553 100.8 64.522 100.8 63.9886C101.6 56.3886 108 50.5886 115.8 50.5886C117.9 50.5886 120 50.9886 121.9 51.8886C126.9 54.0886 130.4 58.8886 130.7 64.6886C130.766 64.9553 130.8 65.2553 130.8 65.5886Z" fill="#E6E7E8"/>
<path fill-rule="evenodd" clip-rule="evenodd" d="M127.7 65.5886C127.7 72.1886 122.4 77.4886 115.8 77.4886C113.6 77.4886 111.5 76.8886 109.8 75.8886C106.2 73.7886 103.8 69.9886 103.8 65.5886C103.8 65.1886 103.9 64.7886 103.9 64.2886C104.5 58.2886 109.6 53.5886 115.8 53.5886C117.5 53.5886 119.1 53.9886 120.6 54.6886C124.6 56.3886 127.4 60.2886 127.7 64.8886C127.7 65.0886 127.7 65.322 127.7 65.5886ZM124.9 64.9886C124.7 61.5886 122.5 58.5886 119.5 57.1886C118.3 56.7886 117.1 56.4886 115.8 56.4886C111 56.4886 107.2 59.9886 106.7 64.5886C106.7 64.922 106.7 65.2553 106.7 65.5886C106.7 68.8886 108.5 71.8886 111.2 73.3886C112.5 74.1886 114.1 74.6886 115.8 74.6886C120.8 74.6886 124.9 70.5886 124.9 65.5886V64.9886Z" fill="#D6D7D8"/>
<g style="mix-blend-mode:multiply" opacity="0.5">
<path d="M115.5 64.2886C112.7 69.7886 109.9 75.2886 108.2 78.4886C103.7 75.9886 100.8 71.0886 100.8 65.5886C100.8 65.0553 100.8 64.522 100.8 63.9886L115.5 64.2886Z" fill="#D6D6D6"/>
</g>
<g style="mix-blend-mode:multiply" opacity="0.5">
<path d="M130.7 64.6887L115.5 64.2887C117.8 59.7887 120.2 55.1887 121.9 51.8887C126.9 54.0887 130.4 58.8887 130.7 64.6887Z" fill="#D6D6D6"/>
</g>
<path d="M119 64.5886C119 66.4886 117.4 67.9886 115.5 67.9886C114.833 67.9886 114.267 67.822 113.8 67.4886C112.7 66.8886 112 65.7886 112 64.5886C112 64.4553 112.033 64.322 112.1 64.1886C112.2 62.3886 113.7 61.0886 115.5 61.0886C116.033 61.0886 116.5 61.1886 116.9 61.3886C118.1 61.8886 118.9 62.9886 119 64.2886C119 64.3553 119 64.4553 119 64.5886Z" fill="#D6D7D8"/>
<g style="mix-blend-mode:multiply" opacity="0.8">
<path d="M117.6 64.5887C117.6 65.6887 116.7 66.6887 115.5 66.6887C115.1 66.6887 114.734 66.5887 114.4 66.3887C113.8 65.9887 113.4 65.2887 113.4 64.5887C113.4 64.4553 113.4 64.3553 113.4 64.2887C113.5 63.2887 114.4 62.3887 115.5 62.3887C115.834 62.3887 116.134 62.4553 116.4 62.5887C117.1 62.8887 117.6 63.5887 117.6 64.3887C117.6 64.4553 117.6 64.522 117.6 64.5887Z" fill="#D6D6D6"/>
</g>
</svg>
