<svg width="238" height="238" viewBox="0 0 238 238" fill="none" xmlns="http://www.w3.org/2000/svg">
<path d="M44.7571 104.016C43.0571 105.316 41.5571 106.716 39.9571 108.116C38.0571 109.716 35.8571 111.616 36.4571 114.416C36.5571 114.916 36.8571 115.416 37.2571 115.716C39.0571 117.816 41.4571 119.216 43.8571 120.616C45.7571 121.816 47.5571 123.316 49.6571 124.116C45.5571 120.216 44.0571 112.516 45.0571 107.216C45.3571 105.316 46.1571 103.416 47.5571 102.116C46.5571 102.716 45.6237 103.349 44.7571 104.016Z" fill="#FC9FAF"/>
<path d="M129.557 85.116C112.257 81.216 91.1569 80.416 69.5569 89.716C61.2569 93.316 52.8569 98.4161 44.5569 105.316C42.9569 110.916 44.2569 116.216 47.2569 121.016C85.8569 140.816 128.957 146.216 170.357 102.716C170.357 102.716 153.657 90.716 129.557 85.116Z" fill="#DCE8EF"/>
<path d="M67.8574 100.216C67.8574 118.316 82.5574 132.916 100.557 132.916C118.557 132.916 133.257 118.316 133.257 100.216C133.257 94.816 131.857 89.616 129.557 85.116C112.257 81.216 91.1574 80.416 69.5574 89.716C68.4574 93.016 67.8574 96.516 67.8574 100.216Z" fill="#89695E"/>
<path d="M72.8574 101.416C72.8574 116.616 85.2574 129.116 100.557 129.116C115.857 129.116 128.257 116.616 128.257 101.416C128.257 96.7161 127.057 92.3161 125.157 88.5161C110.457 85.2161 92.5574 84.6161 74.3574 92.4161C73.3574 95.2161 72.8574 98.2161 72.8574 101.416Z" fill="#997258"/>
<path d="M81.6572 100.216C81.6572 110.716 90.1572 119.116 100.557 119.116C111.057 119.116 119.457 110.716 119.457 100.216C119.457 89.816 111.057 81.316 100.557 81.316C90.1572 81.316 81.6572 89.816 81.6572 100.216Z" fill="#2C3E50"/>
<path d="M170.357 102.716C170.224 102.649 170.057 102.549 169.857 102.416C160.757 98.0161 150.957 94.7161 141.257 92.0161C123.657 87.3161 105.157 84.9161 86.9572 87.3161C76.9572 88.6161 67.1572 91.4161 58.2572 96.1161C53.4572 98.5161 48.9572 101.516 44.7572 104.816C41.2572 107.716 35.6572 112.916 39.5572 118.016C38.5572 116.816 37.3572 115.716 35.9572 115.016C35.7572 114.816 35.4572 114.716 35.3572 114.416C35.2572 114.216 35.2572 114.016 35.3572 113.816C36.4572 108.316 41.5572 102.616 45.2572 98.7161C49.6572 93.9161 54.8572 89.7161 60.4572 86.3161C75.6572 76.8161 93.6572 72.5161 111.557 73.3161C136.557 74.3161 154.257 82.6161 174.657 96.7161C167.757 103.616 170.357 102.716 170.357 102.716Z" fill="#F2C0AA"/>
<path d="M104.457 107.316C104.457 112.116 108.357 115.916 113.057 115.916C117.857 115.916 121.657 112.116 121.657 107.316C121.657 102.616 117.857 98.7161 113.057 98.7161C108.357 98.7161 104.457 102.616 104.457 107.316Z" fill="white"/>
<path d="M175.657 82.7161C173.657 91.1161 168.357 96.8161 159.757 97.4161C159.957 97.4161 160.124 97.4494 160.257 97.5161C160.557 97.5161 160.757 97.7161 160.957 97.9161C163.957 98.7161 165.857 99.3161 165.857 99.3161C171.057 96.3161 178.357 87.5161 175.657 82.7161Z" fill="#BC8866"/>
<path d="M111.357 86.816C118.557 81.316 123.457 70.916 121.857 65.916C118.557 78.216 111.457 83.916 105.357 86.516C107.357 86.5827 109.357 86.6827 111.357 86.816Z" fill="#BC8866"/>
<path d="M128.457 88.516C133.057 84.816 139.257 80.016 137.757 73.916C135.757 79.016 133.957 84.516 122.757 87.916C124.557 88.116 126.557 88.316 128.457 88.516Z" fill="#BC8866"/>
<path d="M136.857 89.8161C143.957 85.8161 147.157 75.7161 147.057 69.7161C144.157 77.7161 141.057 83.6161 129.757 88.6161C132.157 88.9161 134.557 89.3161 136.857 89.8161Z" fill="#BC8866"/>
<path d="M166.957 79.516C164.457 86.916 157.457 94.316 145.057 93.116C149.557 91.016 158.557 78.016 156.157 71.916C153.057 83.116 146.357 88.616 138.157 90.216C140.457 90.916 142.757 91.816 144.757 93.216C144.891 93.2827 144.991 93.416 145.057 93.616C148.357 94.416 151.557 95.316 154.857 96.216C160.257 92.916 167.957 85.216 166.957 79.516Z" fill="#BC8866"/>
<path d="M120.357 87.7161C127.657 83.0161 133.557 72.4161 131.357 66.6161C127.957 78.1161 123.857 83.4161 114.757 87.1161C116.624 87.3161 118.49 87.5161 120.357 87.7161Z" fill="#BC8866"/>
<path d="M98.657 86.5161C102.757 83.7161 105.357 75.5161 103.557 71.5161C103.057 85.2161 92.957 87.1161 92.957 87.1161V87.2161C94.857 87.0161 96.757 86.7161 98.657 86.5161Z" fill="#BC8866"/>
<path d="M85.1576 88.216C85.6909 88.1493 86.2576 88.0827 86.8576 88.016C87.7576 85.116 89.2576 79.016 87.9576 73.916C88.2576 83.416 84.5576 87.416 84.5576 87.416L85.1576 88.216Z" fill="#BC8866"/>
<path d="M47.2568 121.016C47.2568 121.016 97.6568 151.916 142.757 122.516C153.757 113.616 158.957 110.816 164.057 98.816C168.057 101.516 168.057 101.516 168.057 101.516C168.057 101.516 147.357 131.616 116.157 135.916C90.4568 137.916 70.1568 137.216 47.2568 121.016Z" fill="#FFC2C5"/>
<path d="M35.0575 114.216C33.7575 113.116 54.7575 127.416 72.1575 132.916C89.5575 138.416 131.857 144.516 168.057 101.516C172.557 102.916 172.557 102.916 172.557 102.916C172.557 102.916 139.257 145.316 91.2575 138.416C55.9575 132.716 44.2575 121.416 35.0575 114.216Z" fill="#EAAF8F"/>
<path d="M172.557 102.916C171.557 102.716 172.057 102.816 170.357 102.716L168.757 103.016C113.057 84.2161 112.357 85.1161 79.2568 88.8161C80.0568 88.5161 80.8568 88.3161 81.7568 88.1161C118.557 78.3161 154.457 92.9161 164.057 98.8161L172.557 102.916Z" fill="#BC8866"/>
<path d="M164.957 115.416C164.657 114.916 164.057 114.416 163.357 114.116C162.057 113.616 160.857 113.816 160.057 114.016C159.257 114.116 158.757 114.416 158.757 114.416C158.757 114.416 159.257 114.616 160.057 114.816C160.757 115.116 161.757 115.416 162.657 115.816C163.157 116.016 163.457 116.216 163.857 116.416C164.157 116.716 164.557 117.016 164.857 117.316C165.457 117.816 165.957 118.116 165.957 118.116C165.957 118.116 165.857 117.616 165.557 116.816C165.457 116.416 165.257 115.916 164.957 115.416Z" fill="#BC8866"/>
<path d="M157.757 121.616C157.457 121.016 156.957 120.416 156.257 120.116C154.957 119.416 153.757 119.616 152.957 119.816C152.057 119.916 151.657 120.216 151.657 120.216C151.657 120.216 152.157 120.416 152.857 120.616C153.657 120.916 154.657 121.216 155.457 121.616C155.857 121.816 156.157 122.116 156.457 122.416C156.757 122.716 157.057 123.116 157.357 123.416C157.857 124.016 158.257 124.416 158.257 124.416C158.257 124.416 158.257 123.916 158.157 123.016C158.057 122.616 157.957 122.116 157.757 121.616Z" fill="#BC8866"/>
<path d="M146.157 126.516C145.557 126.016 144.857 125.816 144.257 125.716C143.657 125.616 143.157 125.616 142.757 125.616C141.957 125.716 141.457 125.916 141.457 125.916C141.457 125.916 141.957 126.216 142.657 126.516C143.357 126.816 144.357 127.316 144.957 127.816C145.557 128.316 145.857 129.216 146.057 130.016C146.357 130.816 146.557 131.316 146.557 131.316C146.557 131.316 146.757 130.816 146.957 130.016C147.057 129.616 147.157 129.116 147.057 128.416C147.057 127.816 146.757 127.116 146.157 126.516Z" fill="#BC8866"/>
<path d="M173.258 108.916C172.558 108.316 171.358 107.716 169.858 107.616C168.458 107.416 167.158 107.816 166.358 108.216C165.458 108.616 165.058 109.016 165.058 109.016C165.058 109.016 165.758 109.116 166.558 109.116C167.358 109.116 168.558 109.216 169.758 109.316C170.958 109.416 172.058 109.616 172.858 109.716C173.658 109.816 174.358 110.016 174.358 110.016C174.358 110.016 173.958 109.516 173.258 108.916Z" fill="#BC8866"/>
<path d="M136.357 131.116C135.157 130.416 133.857 130.416 132.957 130.616C132.491 130.749 132.157 130.883 131.957 131.016C131.757 131.149 131.657 131.216 131.657 131.216C131.657 131.216 131.791 131.216 132.057 131.216C132.257 131.283 132.557 131.383 132.957 131.516C133.657 131.716 134.557 132.116 135.457 132.716C136.357 133.216 137.157 133.816 137.757 134.316C138.024 134.649 138.224 134.883 138.357 135.016C138.557 135.216 138.657 135.316 138.657 135.316C138.657 135.316 138.657 135.216 138.657 135.016C138.657 134.749 138.624 134.383 138.557 133.916C138.257 133.016 137.657 131.916 136.357 131.116Z" fill="#BC8866"/>
<path d="M123.357 134.716C122.857 134.716 122.457 134.916 122.457 134.916C122.457 134.916 122.757 135.216 122.957 135.516C123.257 135.916 123.557 136.416 123.857 136.816C124.257 137.216 124.657 137.516 125.057 137.816C125.357 138.016 125.657 138.316 125.657 138.316C125.657 138.316 125.857 138.016 125.857 137.416C125.957 136.916 125.757 136.116 125.157 135.616C124.657 135.016 123.857 134.716 123.357 134.716Z" fill="#BC8866"/>
<path d="M66.8572 116.216C64.9572 112.516 63.3572 109.816 63.2572 105.516C63.1572 101.116 64.0572 99.1161 58.8572 99.7161C53.9572 100.316 50.3572 103.216 50.2572 108.316C50.1572 113.216 53.2572 118.016 56.9572 121.016C62.6572 125.716 71.7572 125.716 66.8572 116.216Z" fill="#EDF7FC"/>
<path d="M143.957 98.8161C147.057 98.6161 150.457 100.216 151.757 103.016C153.157 106.016 152.157 109.616 149.957 112.116C147.257 115.216 136.557 125.016 132.057 120.816C129.157 118.116 136.357 109.216 137.157 105.716C137.957 102.016 139.257 99.2161 143.957 98.8161Z" fill="#EDF7FC"/>
<g style="mix-blend-mode:overlay">
<path d="M75.4573 118.316C80.7573 116.216 85.5573 112.916 90.3573 109.816C89.1573 105.116 89.2573 99.9161 90.9573 95.2161C86.1573 95.1161 76.5573 94.5161 72.6573 97.6161C69.3573 100.116 70.1573 106.316 71.0573 109.816C71.9573 112.916 73.5573 115.716 75.4573 118.316Z" fill="#8AA2AA"/>
</g>
<g style="mix-blend-mode:overlay">
<path d="M93.3568 116.616C89.2902 119.216 85.2568 121.849 81.2568 124.516C84.6568 127.516 88.5568 130.016 92.9568 131.316C98.5568 133.016 106.357 132.616 110.357 127.716C103.457 126.116 97.2568 122.816 93.3568 116.616Z" fill="#8AA2AA"/>
</g>
<path d="M161.357 137.816L165.857 131.316C166.057 131.016 166.557 131.016 166.957 131.316L186.757 144.316C187.357 144.716 187.557 145.216 187.357 145.616L182.057 153.116C181.857 153.416 181.257 153.416 180.657 153.016L161.657 138.916C161.257 138.616 161.157 138.116 161.357 137.816Z" fill="#B2BBC4"/>
<path d="M178.757 151.916L185.057 142.916C185.257 142.616 185.957 142.616 186.457 143.016L192.257 147.116C192.757 147.416 193.057 148.016 192.857 148.316L186.557 157.316C186.357 157.616 185.657 157.616 185.157 157.216L179.357 153.216C178.857 152.816 178.557 152.216 178.757 151.916Z" fill="#78909C"/>
<path d="M179.557 153.416L186.757 143.216C187.057 142.716 188.057 142.916 189.057 143.516L219.557 163.716C220.757 164.616 221.557 165.716 221.157 166.216L212.857 178.116C212.457 178.616 211.157 178.316 209.957 177.416L180.757 155.416C179.757 154.716 179.257 153.816 179.557 153.416Z" fill="#90A4AE"/>
<path d="M173.257 135.416L167.657 143.316L168.557 144.016L175.557 149.216L176.457 149.916L182.357 141.416L173.257 135.416Z" fill="#78909C"/>
<path d="M167.658 145.316L175.158 134.716C175.358 134.316 176.058 134.316 176.558 134.716L181.758 138.416C182.258 138.716 182.458 139.316 182.258 139.716L174.758 150.316C174.558 150.716 173.858 150.716 173.358 150.316L168.158 146.616C167.658 146.316 167.458 145.716 167.658 145.316Z" fill="#B2BBC4"/>
<g style="mix-blend-mode:overlay" opacity="0.5">
<path d="M165.557 131.916L218.957 169.516L215.657 174.116L162.257 136.516L165.557 131.916Z" fill="#B2BBC4"/>
</g>
<path fill-rule="evenodd" clip-rule="evenodd" d="M83.8575 120.216C76.5575 95.316 90.7575 69.2161 115.557 61.9161C140.457 54.6161 166.557 68.816 173.857 93.616C181.157 118.416 166.957 144.516 142.157 151.916C117.357 159.216 91.2575 145.016 83.8575 120.216ZM170.557 94.616C163.757 71.516 139.557 58.416 116.557 65.216C93.5575 72.016 80.3575 96.216 87.1575 119.216C93.9575 142.216 118.157 155.416 141.157 148.616C164.257 141.816 177.357 117.616 170.557 94.616Z" fill="#B2BBC4"/>
<path fill-rule="evenodd" clip-rule="evenodd" d="M87.1568 119.216C80.3568 96.2161 93.5568 72.0161 116.557 65.2161C139.557 58.4161 163.757 71.5161 170.557 94.6161C177.357 117.616 164.257 141.816 141.157 148.616C118.157 155.416 93.9568 142.216 87.1568 119.216ZM167.957 96.4161C161.557 74.4161 138.457 61.8161 116.557 68.3161C94.5568 74.8161 82.0568 97.9161 88.5568 119.816C95.0568 141.816 118.057 154.416 140.057 147.916C161.957 141.416 174.457 118.416 167.957 96.4161Z" fill="#78909C"/>
<path opacity="0.3" d="M98.1576 127.716C93.6576 121.016 91.0576 113.016 91.7576 104.916C92.3576 96.2161 94.4576 88.0161 100.558 81.6161C103.358 78.7161 106.558 76.3161 110.158 74.5161C111.891 73.6494 113.691 72.9161 115.558 72.3161C116.858 71.9161 119.658 71.9161 120.858 71.1161C114.958 75.1161 109.558 80.1161 106.458 86.4161C102.358 94.4161 102.658 104.116 106.458 112.216C108.358 116.116 111.058 119.716 114.558 122.416C118.458 125.416 123.358 125.916 127.158 128.716C129.658 130.516 131.858 132.916 132.658 135.916C135.058 145.016 123.558 144.616 118.058 142.816C109.958 140.216 102.958 134.716 98.1576 127.716Z" fill="#F1F2F2"/>
</svg>
